<mxfile host="app.diagrams.net" modified="2021-12-05T05:12:01.660Z" agent="5.0 (Windows NT 10.0; Win64; x64) AppleWebKit/537.36 (KHTML, like Gecko) Chrome/96.0.4664.45 Safari/537.36" etag="i-Zht5k0BlsjEyuNPwx3" version="15.9.1" type="github">
  <diagram id="C5RBs43oDa-KdzZeNtuy" name="Page-1">
    <mxGraphModel dx="1246" dy="1045" grid="1" gridSize="10" guides="1" tooltips="1" connect="1" arrows="1" fold="1" page="1" pageScale="1" pageWidth="827" pageHeight="1169" math="0" shadow="0">
      <root>
        <mxCell id="WIyWlLk6GJQsqaUBKTNV-0" />
        <mxCell id="WIyWlLk6GJQsqaUBKTNV-1" parent="WIyWlLk6GJQsqaUBKTNV-0" />
        <mxCell id="Fu3PszW8z3GYcJA24TuE-2" value="" style="edgeStyle=orthogonalEdgeStyle;rounded=0;orthogonalLoop=1;jettySize=auto;html=1;" parent="WIyWlLk6GJQsqaUBKTNV-1" source="Fu3PszW8z3GYcJA24TuE-0" target="Fu3PszW8z3GYcJA24TuE-1" edge="1">
          <mxGeometry relative="1" as="geometry" />
        </mxCell>
        <mxCell id="Fu3PszW8z3GYcJA24TuE-0" value="서비스 입장" style="rounded=1;whiteSpace=wrap;html=1;arcSize=50;fillColor=#fff2cc;strokeColor=#d6b656;" parent="WIyWlLk6GJQsqaUBKTNV-1" vertex="1">
          <mxGeometry x="150" y="70" width="120" height="60" as="geometry" />
        </mxCell>
        <mxCell id="Fu3PszW8z3GYcJA24TuE-4" value="" style="edgeStyle=orthogonalEdgeStyle;rounded=0;orthogonalLoop=1;jettySize=auto;html=1;" parent="WIyWlLk6GJQsqaUBKTNV-1" source="Fu3PszW8z3GYcJA24TuE-1" target="Fu3PszW8z3GYcJA24TuE-3" edge="1">
          <mxGeometry relative="1" as="geometry" />
        </mxCell>
        <mxCell id="Fu3PszW8z3GYcJA24TuE-1" value="현재 위치 &lt;br&gt;초기화" style="shape=hexagon;perimeter=hexagonPerimeter2;whiteSpace=wrap;html=1;fixedSize=1;rounded=1;arcSize=0;fillColor=#f5f5f5;strokeColor=#666666;fontColor=#333333;" parent="WIyWlLk6GJQsqaUBKTNV-1" vertex="1">
          <mxGeometry x="150" y="170" width="120" height="80" as="geometry" />
        </mxCell>
        <mxCell id="Fu3PszW8z3GYcJA24TuE-10" value="" style="edgeStyle=orthogonalEdgeStyle;rounded=0;orthogonalLoop=1;jettySize=auto;html=1;" parent="WIyWlLk6GJQsqaUBKTNV-1" source="Fu3PszW8z3GYcJA24TuE-3" target="Fu3PszW8z3GYcJA24TuE-9" edge="1">
          <mxGeometry relative="1" as="geometry" />
        </mxCell>
        <mxCell id="Fu3PszW8z3GYcJA24TuE-16" value="" style="edgeStyle=orthogonalEdgeStyle;rounded=0;orthogonalLoop=1;jettySize=auto;html=1;" parent="WIyWlLk6GJQsqaUBKTNV-1" source="Fu3PszW8z3GYcJA24TuE-3" target="Fu3PszW8z3GYcJA24TuE-15" edge="1">
          <mxGeometry relative="1" as="geometry" />
        </mxCell>
        <mxCell id="Fu3PszW8z3GYcJA24TuE-3" value="1. 입장하기&lt;br&gt;2. 다른 주소로 입장하기" style="rhombus;whiteSpace=wrap;html=1;rounded=1;arcSize=0;fillColor=#d5e8d4;strokeColor=#82b366;" parent="WIyWlLk6GJQsqaUBKTNV-1" vertex="1">
          <mxGeometry x="105" y="290" width="210" height="100" as="geometry" />
        </mxCell>
        <mxCell id="PwJWEB3IyEMcyHnr7cAW-5" value="" style="edgeStyle=orthogonalEdgeStyle;rounded=0;orthogonalLoop=1;jettySize=auto;html=1;" edge="1" parent="WIyWlLk6GJQsqaUBKTNV-1" source="Fu3PszW8z3GYcJA24TuE-9">
          <mxGeometry relative="1" as="geometry">
            <mxPoint x="210" y="270" as="targetPoint" />
            <Array as="points">
              <mxPoint x="480" y="270" />
            </Array>
          </mxGeometry>
        </mxCell>
        <mxCell id="Fu3PszW8z3GYcJA24TuE-9" value="주소 &lt;br&gt;검색하기" style="whiteSpace=wrap;html=1;rounded=0;fillColor=#dae8fc;strokeColor=#6c8ebf;" parent="WIyWlLk6GJQsqaUBKTNV-1" vertex="1">
          <mxGeometry x="420" y="310" width="120" height="60" as="geometry" />
        </mxCell>
        <mxCell id="Fu3PszW8z3GYcJA24TuE-13" value="1" style="text;html=1;align=center;verticalAlign=middle;resizable=0;points=[];autosize=1;strokeColor=none;fillColor=none;" parent="WIyWlLk6GJQsqaUBKTNV-1" vertex="1">
          <mxGeometry x="190" y="390" width="20" height="20" as="geometry" />
        </mxCell>
        <mxCell id="Fu3PszW8z3GYcJA24TuE-14" value="2" style="text;html=1;align=center;verticalAlign=middle;resizable=0;points=[];autosize=1;strokeColor=none;fillColor=none;strokeWidth=1;" parent="WIyWlLk6GJQsqaUBKTNV-1" vertex="1">
          <mxGeometry x="315" y="320" width="20" height="20" as="geometry" />
        </mxCell>
        <mxCell id="Fu3PszW8z3GYcJA24TuE-20" value="" style="edgeStyle=orthogonalEdgeStyle;rounded=0;orthogonalLoop=1;jettySize=auto;html=1;" parent="WIyWlLk6GJQsqaUBKTNV-1" source="Fu3PszW8z3GYcJA24TuE-15" target="Fu3PszW8z3GYcJA24TuE-19" edge="1">
          <mxGeometry relative="1" as="geometry" />
        </mxCell>
        <mxCell id="Fu3PszW8z3GYcJA24TuE-15" value="위치기반&lt;br&gt;루트 추천받기" style="whiteSpace=wrap;html=1;rounded=0;fillColor=#dae8fc;strokeColor=#6c8ebf;" parent="WIyWlLk6GJQsqaUBKTNV-1" vertex="1">
          <mxGeometry x="150" y="480" width="120" height="60" as="geometry" />
        </mxCell>
        <mxCell id="Fu3PszW8z3GYcJA24TuE-22" value="" style="edgeStyle=orthogonalEdgeStyle;rounded=0;orthogonalLoop=1;jettySize=auto;html=1;" parent="WIyWlLk6GJQsqaUBKTNV-1" source="Fu3PszW8z3GYcJA24TuE-19" target="Fu3PszW8z3GYcJA24TuE-21" edge="1">
          <mxGeometry relative="1" as="geometry">
            <Array as="points">
              <mxPoint x="420" y="605" />
            </Array>
          </mxGeometry>
        </mxCell>
        <mxCell id="Fu3PszW8z3GYcJA24TuE-25" value="" style="edgeStyle=orthogonalEdgeStyle;rounded=0;orthogonalLoop=1;jettySize=auto;html=1;" parent="WIyWlLk6GJQsqaUBKTNV-1" source="Fu3PszW8z3GYcJA24TuE-19" target="Fu3PszW8z3GYcJA24TuE-24" edge="1">
          <mxGeometry relative="1" as="geometry" />
        </mxCell>
        <mxCell id="Fu3PszW8z3GYcJA24TuE-19" value="재설정 유무" style="rhombus;whiteSpace=wrap;html=1;rounded=0;fillColor=#d5e8d4;strokeColor=#82b366;" parent="WIyWlLk6GJQsqaUBKTNV-1" vertex="1">
          <mxGeometry x="340" y="470" width="160" height="80" as="geometry" />
        </mxCell>
        <mxCell id="Fu3PszW8z3GYcJA24TuE-21" value="서비스 종료" style="whiteSpace=wrap;html=1;rounded=1;arcSize=50;fillColor=#fff2cc;strokeColor=#d6b656;" parent="WIyWlLk6GJQsqaUBKTNV-1" vertex="1">
          <mxGeometry x="150" y="575" width="120" height="60" as="geometry" />
        </mxCell>
        <mxCell id="Fu3PszW8z3GYcJA24TuE-23" value="No" style="text;html=1;align=center;verticalAlign=middle;resizable=0;points=[];autosize=1;strokeColor=none;fillColor=none;" parent="WIyWlLk6GJQsqaUBKTNV-1" vertex="1">
          <mxGeometry x="390" y="550" width="30" height="20" as="geometry" />
        </mxCell>
        <mxCell id="Fu3PszW8z3GYcJA24TuE-27" value="" style="edgeStyle=orthogonalEdgeStyle;rounded=0;orthogonalLoop=1;jettySize=auto;html=1;" parent="WIyWlLk6GJQsqaUBKTNV-1" source="Fu3PszW8z3GYcJA24TuE-24" edge="1">
          <mxGeometry relative="1" as="geometry">
            <mxPoint x="210" y="420" as="targetPoint" />
            <Array as="points">
              <mxPoint x="450" y="420" />
            </Array>
          </mxGeometry>
        </mxCell>
        <mxCell id="Fu3PszW8z3GYcJA24TuE-31" value="" style="edgeStyle=orthogonalEdgeStyle;rounded=0;orthogonalLoop=1;jettySize=auto;html=1;" parent="WIyWlLk6GJQsqaUBKTNV-1" source="Fu3PszW8z3GYcJA24TuE-24" target="Fu3PszW8z3GYcJA24TuE-30" edge="1">
          <mxGeometry relative="1" as="geometry" />
        </mxCell>
        <mxCell id="Fu3PszW8z3GYcJA24TuE-24" value="1. 랜덤 추천&lt;br&gt;2. 수동 입력" style="rhombus;whiteSpace=wrap;html=1;rounded=0;fillColor=#d5e8d4;strokeColor=#82b366;" parent="WIyWlLk6GJQsqaUBKTNV-1" vertex="1">
          <mxGeometry x="530" y="380" width="160" height="80" as="geometry" />
        </mxCell>
        <mxCell id="Fu3PszW8z3GYcJA24TuE-28" value="1" style="text;html=1;align=center;verticalAlign=middle;resizable=0;points=[];autosize=1;strokeColor=none;fillColor=none;" parent="WIyWlLk6GJQsqaUBKTNV-1" vertex="1">
          <mxGeometry x="510" y="400" width="20" height="20" as="geometry" />
        </mxCell>
        <mxCell id="Fu3PszW8z3GYcJA24TuE-29" value="Yes" style="text;html=1;align=center;verticalAlign=middle;resizable=0;points=[];autosize=1;strokeColor=none;fillColor=none;" parent="WIyWlLk6GJQsqaUBKTNV-1" vertex="1">
          <mxGeometry x="500" y="490" width="40" height="20" as="geometry" />
        </mxCell>
        <mxCell id="Fu3PszW8z3GYcJA24TuE-35" value="" style="edgeStyle=orthogonalEdgeStyle;rounded=0;orthogonalLoop=1;jettySize=auto;html=1;entryX=1;entryY=0.5;entryDx=0;entryDy=0;" parent="WIyWlLk6GJQsqaUBKTNV-1" source="Fu3PszW8z3GYcJA24TuE-30" target="Fu3PszW8z3GYcJA24TuE-21" edge="1">
          <mxGeometry relative="1" as="geometry">
            <mxPoint x="390" y="740" as="targetPoint" />
            <Array as="points">
              <mxPoint x="887" y="605" />
            </Array>
          </mxGeometry>
        </mxCell>
        <mxCell id="Fu3PszW8z3GYcJA24TuE-30" value="카테고리 별&lt;br&gt;검색하기" style="whiteSpace=wrap;html=1;rounded=0;fillColor=#dae8fc;strokeColor=#6c8ebf;" parent="WIyWlLk6GJQsqaUBKTNV-1" vertex="1">
          <mxGeometry x="827" y="390" width="120" height="60" as="geometry" />
        </mxCell>
        <mxCell id="PwJWEB3IyEMcyHnr7cAW-6" value="2" style="text;html=1;align=center;verticalAlign=middle;resizable=0;points=[];autosize=1;strokeColor=none;fillColor=none;" vertex="1" parent="WIyWlLk6GJQsqaUBKTNV-1">
          <mxGeometry x="690" y="400" width="20" height="20" as="geometry" />
        </mxCell>
      </root>
    </mxGraphModel>
  </diagram>
</mxfile>
